<svg width="20" height="17" viewBox="0 0 20 17" fill="none" xmlns="http://www.w3.org/2000/svg">
<path d="M0 17V3.77778H4.44444V0H15.5556V7.55556H20V17H11.1111V13.2222H8.88889V17H0ZM2.22222 15.1111H4.44444V13.2222H2.22222V15.1111ZM2.22222 11.3333H4.44444V9.44444H2.22222V11.3333ZM2.22222 7.55556H4.44444V5.66667H2.22222V7.55556ZM6.66667 11.3333H8.88889V9.44444H6.66667V11.3333ZM6.66667 7.55556H8.88889V5.66667H6.66667V7.55556ZM6.66667 3.77778H8.88889V1.88889H6.66667V3.77778ZM11.1111 11.3333H13.3333V9.44444H11.1111V11.3333ZM11.1111 7.55556H13.3333V5.66667H11.1111V7.55556ZM11.1111 3.77778H13.3333V1.88889H11.1111V3.77778ZM15.5556 15.1111H17.7778V13.2222H15.5556V15.1111ZM15.5556 11.3333H17.7778V9.44444H15.5556V11.3333Z" fill="white"/>
</svg>
