<svg width="20" height="20" viewBox="0 0 20 20" fill="none" xmlns="http://www.w3.org/2000/svg">
<g clip-path="url(#clip0_0_483)">
<path d="M-0.15 9.95509C-0.15 15.5139 4.41779 20.0602 10 20.0602C15.5822 20.0602 20.15 15.5139 20.15 9.95509C20.15 4.39631 15.5822 -0.15 10 -0.15C4.41779 -0.15 -0.15 4.39631 -0.15 9.95509ZM10 18.101C9.89193 18.101 9.74591 18.0352 9.56974 17.8586C9.39663 17.6851 9.21214 17.4218 9.02869 17.0718C8.67955 16.4056 8.34504 15.4461 8.09964 14.253H11.9004C11.655 15.4461 11.3204 16.4056 10.9713 17.0718C10.7879 17.4218 10.6034 17.6851 10.4303 17.8586C10.2541 18.0352 10.1081 18.101 10 18.101ZM16.9857 14.253C16.0571 15.749 14.6182 16.913 12.9609 17.5673C13.3827 16.635 13.7326 15.4763 13.9586 14.253H16.9857ZM6.04138 14.253C6.26736 15.4763 6.61734 16.635 7.0391 17.5673C5.38182 16.913 3.94285 15.749 3.01426 14.253H6.04138ZM18.1833 9.95509C18.1833 10.7254 18.0363 11.5737 17.8795 12.2939H14.2481C14.3167 11.512 14.3167 10.7316 14.3167 9.95877V9.95509V9.94818C14.3167 9.18163 14.3167 8.40034 14.1806 7.61632H17.8078C18.0346 8.32933 18.1833 9.18075 18.1833 9.95509ZM12.2824 12.2939H7.80097C7.72302 11.5837 7.65 10.8053 7.65 9.95509C7.65 9.10488 7.72302 8.32643 7.80097 7.61632H12.2824C12.3603 8.32643 12.4333 9.10488 12.4333 9.95509C12.4333 10.8053 12.3603 11.5837 12.2824 12.2939ZM2.19216 7.61632H5.83524C5.76667 8.39821 5.76667 9.17863 5.76667 9.95144V9.95509V9.95874C5.76667 10.7316 5.76667 11.512 5.83524 12.2939H2.19216C1.96544 11.5809 1.81667 10.7294 1.81667 9.95509C1.81667 9.18075 1.96544 8.32933 2.19216 7.61632ZM12.9609 2.34287C14.6182 2.99721 16.0571 4.16115 16.9857 5.65714H13.9586C13.7326 4.43393 13.3827 3.27516 12.9609 2.34287ZM11.9837 5.65714H8.09978C8.34667 4.46575 8.70047 3.50709 9.06875 2.84137C9.26226 2.49159 9.4569 2.22788 9.63786 2.05373C9.82234 1.87621 9.97403 1.80918 10.0833 1.80918C10.1914 1.80918 10.3374 1.87499 10.5136 2.05159C10.6867 2.22511 10.8712 2.48835 11.0546 2.83839C11.4038 3.50457 11.7383 4.4641 11.9837 5.65714ZM7.03891 2.3433C6.61723 3.27552 6.26733 4.43411 6.04138 5.65714H3.02445C4.01662 4.15809 5.39408 2.99628 7.03891 2.3433Z" fill="white" stroke="white" stroke-width="0.3"/>
</g>
<defs>
<clipPath id="clip0_0_483">
<path d="M0 10.03C0 4.5237 4.49371 0.0599709 10 0.0599709C15.5063 0.0599709 20 4.5237 20 10.03C20 15.5363 15.5063 20 10 20C4.49371 20 0 15.5363 0 10.03Z" fill="white"/>
</clipPath>
</defs>
</svg>
